<svg width="88" height="19" viewBox="0 0 88 19" fill="none" xmlns="http://www.w3.org/2000/svg">
<path d="M12.7225 12.744H9.33847C9.00247 14.136 8.11447 15.168 6.45847 15.168C5.54647 15.168 4.80247 14.832 4.32247 14.28C3.69847 13.56 3.48247 12.72 3.48247 9.456C3.48247 6.192 3.69847 5.352 4.32247 4.632C4.80247 4.08 5.54647 3.744 6.45847 3.744C8.11447 3.744 8.97847 4.776 9.31447 6.168H12.7225C12.0985 2.592 9.65047 0.767999 6.45847 0.767999C4.49047 0.767999 3.05047 1.416 1.87447 2.568C0.170469 4.272 0.146469 6.192 0.146469 9.456C0.146469 12.72 0.170469 14.64 1.87447 16.344C3.05047 17.496 4.49047 18.144 6.45847 18.144C9.62647 18.144 12.0985 16.32 12.7225 12.744ZM27.4189 9.456C27.4189 6.192 27.3709 4.272 25.6669 2.568C24.5149 1.416 23.0749 0.767999 21.1069 0.767999C19.1389 0.767999 17.6749 1.416 16.5229 2.568C14.8189 4.272 14.7949 6.192 14.7949 9.456C14.7949 12.72 14.8189 14.64 16.5229 16.344C17.6749 17.496 19.1389 18.144 21.1069 18.144C23.0749 18.144 24.5149 17.496 25.6669 16.344C27.3709 14.64 27.4189 12.72 27.4189 9.456ZM24.0829 9.456C24.0829 12.72 23.8669 13.512 23.2429 14.232C22.7629 14.784 22.0189 15.168 21.1069 15.168C20.1949 15.168 19.4509 14.784 18.9469 14.232C18.3229 13.512 18.1309 12.72 18.1309 9.456C18.1309 6.192 18.3229 5.376 18.9469 4.656C19.4509 4.104 20.1949 3.744 21.1069 3.744C22.0189 3.744 22.7629 4.104 23.2429 4.656C23.8669 5.376 24.0829 6.192 24.0829 9.456ZM43.1282 12.144V0.912H39.8162V12.024C39.8162 13.992 38.6402 15.168 36.8402 15.168C35.0402 15.168 33.8882 13.992 33.8882 12.024V0.912H30.5522V12.144C30.5522 15.768 33.3362 18.144 36.8402 18.144C40.3442 18.144 43.1282 15.768 43.1282 12.144ZM59.7835 18L55.9675 10.632C57.6235 10.032 59.0875 8.544 59.0875 6.144C59.0875 3.288 57.0235 0.912 53.5435 0.912H46.8475V18H50.1835V11.184H52.5835L55.9195 18H59.7835ZM55.7515 6.144C55.7515 7.464 54.7915 8.4 53.3275 8.4H50.1835V3.888H53.3275C54.7915 3.888 55.7515 4.824 55.7515 6.144ZM73.5906 12.96C73.5906 11.424 73.1826 10.2 72.2706 9.36C71.5266 8.64 70.5666 8.232 69.0066 8.016L66.9666 7.704C66.2466 7.608 65.7426 7.368 65.4066 7.056C65.0466 6.72 64.9266 6.288 64.9266 5.832C64.9266 4.656 65.7666 3.672 67.5426 3.672C68.6706 3.672 69.9906 3.816 71.0466 4.848L73.1586 2.76C71.6946 1.344 69.9906 0.767999 67.6386 0.767999C63.9426 0.767999 61.6866 2.904 61.6866 5.952C61.6866 7.392 62.0946 8.52 62.9106 9.312C63.6786 10.056 64.7106 10.512 66.2226 10.728L68.2626 11.04C69.1266 11.16 69.4626 11.304 69.7986 11.616C70.1586 11.976 70.3266 12.456 70.3266 13.032C70.3266 14.4 69.2706 15.168 67.2786 15.168C65.7186 15.168 64.2546 14.808 63.1746 13.728L61.0146 15.888C62.6946 17.592 64.6626 18.144 67.2546 18.144C70.8546 18.144 73.5906 16.272 73.5906 12.96ZM87.9863 18V15.024H80.0663V10.872H86.8103V7.896H80.0663V3.888H87.9863V0.912H76.7303V18H87.9863Z" fill="#00A7EA"/>
</svg>
